PathFileType	4	(X/Y/Z)	S01_0008_Gait_markers.trc
DataRate	CameraRate	NumFrames	NumMarkers	Units	OrigDataRate	OrigDataStartFrame	OrigNumFrames
250.000000	250.000000	4	54	mm	250.000000	297	340
Frame#	Time	HEAD_ANT			R_HEAD			L_HEAD			C7			R_BACK			L_BACK			STERNUM			R_ACROMION			R_HUM_PROX			R_HUM_ANT			R_HUM_POST			R_ELBOW_LAT			R_ELBOW_MED			R_FOREARM			R_WIRST_LAT			R_WRITS_MED			R_HAND			L_ACROMION			L_HUM_PROX			L_HUM_ANT			L_HUM_POST			L_ELBOW_LAT			L_ELBOW_MED			L_FOREARM			L_WRIST_LAT			L_WIRST_MED			L_HAND			R_ILIAC			SACRUM			L_ILIAC			R_GTROCH			R_THIGH__1			R_THIGH_2			R_THIGH_3			R_THIGH_4			R_SHANK_1			R_SHANK_2			R_SHANK_3			R_SHANK_4			R_HEEL			R_FOOT_LAT			R_FOOT_MED			L_GTROCH			L_THIGH_1			L_THIGH_2			L_THIGH_3			L_THIGH_4			L_SHANK_1			L_SHANK_2			L_SHANK_3			L_SHANK_4			L_HEEL			L_FOOT_LAT			L_FOOT_MED			
		X1	Y1	Z1	X2	Y2	Z2	X3	Y3	Z3	X4	Y4	Z4	X5	Y5	Z5	X6	Y6	Z6	X7	Y7	Z7	X8	Y8	Z8	X9	Y9	Z9	X10	Y10	Z10	X11	Y11	Z11	X12	Y12	Z12	X13	Y13	Z13	X14	Y14	Z14	X15	Y15	Z15	X16	Y16	Z16	X17	Y17	Z17	X18	Y18	Z18	X19	Y19	Z19	X20	Y20	Z20	X21	Y21	Z21	X22	Y22	Z22	X23	Y23	Z23	X24	Y24	Z24	X25	Y25	Z25	X26	Y26	Z26	X27	Y27	Z27	X28	Y28	Z28	X29	Y29	Z29	X30	Y30	Z30	X31	Y31	Z31	X32	Y32	Z32	X33	Y33	Z33	X34	Y34	Z34	X35	Y35	Z35	X36	Y36	Z36	X37	Y37	Z37	X38	Y38	Z38	X39	Y39	Z39	X40	Y40	Z40	X41	Y41	Z41	X42	Y42	Z42	X43	Y43	Z43	X44	Y44	Z44	X45	Y45	Z45	X46	Y46	Z46	X47	Y47	Z47	X48	Y48	Z48	X49	Y49	Z49	X50	Y50	Z50	X51	Y51	Z51	X52	Y52	Z52	X53	Y53	Z53	X54	Y54	Z54	

298	1.188	1827.827514648438	1711.047729492188	-357.2256469726559	1766.47509765625	1658.392944335938	-282.9301757812497	1770.906372070312	1662.07666015625	-429.0670776367184	1631.058837890625	1490.308715820312	-362.3198242187497	1553.821166992188	1292.436767578125	-303.1078796386716	1558.852416992188	1299.72265625	-440.6466369628903	1811.956787109375	1328.0517578125	-357.9471130371091	1701.428344726562	1437.891845703125	-186.4642944335934	1647.677978515625	1277.485229492188	-102.9162139892575	1703.634887695312	1188.665405273438	-93.90968322753879	1582.28173828125	1198.049194335938	-98.38288879394504	1623.284545898438	1088.67138671875	-86.52438354492163	1607.667114257812	1086.027587890625	-168.6148529052732	1707.039794921875	898.607666015625	-75.65925598144511	1745.908325195312	830.2467651367188	-110.8647842407225	1673.1376953125	812.1026000976562	-81.80940246582013	1735.013671875	742.2353515625	-55.93465423583968	1718.1318359375	1446.61865234375	-526.3291015624997	1714.502807617188	1282.062622070313	-622.0405883789059	1784.756958007812	1208.18310546875	-616.2612304687498	1666.947875976562	1199.386352539063	-653.9896240234373	1736.019897460938	1101.174438476563	-657.8625488281248	1680.74560546875	1086.5205078125	-603.5187377929685	1875.01123046875	953.0059204101564	-623.309387207031	1913.597290039062	904.1791381835939	-566.779357910156	1880.754638671875	867.9636840820314	-626.8734130859373	1968.865356445312	835.2640991210939	-608.144348144531	1709.182739257812	1039.084106445312	-197.4935150146482	1580.112670898438	1014.107727050781	-361.6652832031248	1694.27294921875	1041.297119140625	-542.8602294921873	1678.941040039062	889.7070922851562	-185.3830413818357	1804.243774414062	625.5275268554688	-208.5252075195311	1851.59716796875	660.320068359375	-202.7368927001952	1891.116333007812	567.8487548828125	-243.5284271240233	1828.761474609375	550.6242065429688	-233.5190582275389	1895.069580078125	335.1203308105469	-227.5562133789062	1954.037963867188	334.0116882324219	-244.6418151855468	1976.865356445312	252.4237213134766	-262.7302246093749	1914.814697265625	237.4568481445313	-249.4413146972656	1945.478881835938	28.92613029479988	-335.595947265625	2108.96484375	50.07598114013678	-255.1595764160156	2150.499755859375	86.02021026611335	-341.92822265625	1649.221557617188	936.2105102539064	-546.1447143554685	1651.544921875	643.6791381835939	-529.5394897460936	1605.962890625	678.4791870117189	-542.7453002929686	1563.328247070312	586.6373291015626	-511.6168518066405	1624.185424804688	569.6667480468751	-504.9445190429686	1469.980224609375	331.7017211914064	-489.0321044921874	1409.894897460938	339.1412658691407	-493.8193969726562	1367.596923828125	265.1261596679689	-473.3916320800781	1426.404296875	241.8341369628907	-462.8129577636718	1244.181030273438	118.8500518798829	-398.1468811035156	1395.80126953125	19.96782112121592	-451.6399536132812	1430.628051757812	30.60871887207039	-345.5704345703125	
299	1.192	1833.594482421875	1710.56689453125	-356.5964660644527	1772.197875976562	1657.901245117188	-282.2744445800778	1776.600341796875	1661.653686523438	-428.5231628417965	1636.800903320312	1489.832153320312	-361.6911315917965	1559.888793945312	1291.609619140625	-302.6522216796872	1564.760986328125	1299.175048828125	-440.0100402832028	1815.546264648438	1326.9365234375	-354.0966186523435	1707.234741210938	1437.232177734375	-185.9658050537106	1653.770263671875	1276.6572265625	-102.5149307250974	1709.815185546875	1187.842529296875	-93.73248291015598	1588.42529296875	1197.25390625	-98.15415191650364	1629.54248046875	1087.872436523438	-86.20978546142554	1613.76611328125	1085.365356445312	-168.7130889892576	1713.05126953125	897.7581176757812	-75.64751434326152	1752.09716796875	829.524658203125	-110.9351882934568	1679.16650390625	811.365478515625	-81.82804107665997	1740.872802734375	741.2852172851562	-56.0379676818846	1724.118286132812	1446.318115234375	-525.7720336914059	1720.047119140625	1281.708618164063	-621.5172119140622	1790.1787109375	1207.674560546875	-615.905578613281	1672.057006835938	1199.036743164063	-653.098205566406	1741.349243164062	1100.668701171875	-657.0843505859373	1686.058715820312	1086.229370117188	-602.7393798828123	1880.119750976562	952.2214965820314	-623.2615966796873	1918.640625	903.2258911132814	-566.8038330078123	1885.511962890625	867.2708740234376	-626.9169921874998	1973.611083984375	834.2052001953126	-608.596008300781	1714.959228515625	1038.786376953125	-197.0706787109373	1586.494018554688	1013.670288085938	-361.4764709472654	1700.954467773438	1040.787475585938	-542.607971191406	1685.651245117188	889.4093627929688	-185.3342132568357	1811.073364257812	625.3892822265625	-209.0235748291014	1858.5576171875	660.2313232421875	-203.0936737060545	1898.34228515625	568.0274047851562	-243.5788269042968	1835.806030273438	550.545654296875	-233.9672088623046	1900.6943359375	334.7301635742188	-228.2196197509765	1959.526733398438	333.0304870605469	-245.6593627929687	1981.457763671875	251.4519348144532	-263.8766784667968	1919.219604492188	236.9789428710938	-250.1431732177734	1946.86376953125	30.15057373046882	-336.2598876953125	2109.80615234375	46.47434616088873	-256.1024475097656	2153.45068359375	80.32274627685554	-343.1889343261719	1655.849365234375	935.6183471679689	-546.1035156249998	1658.32568359375	643.0686035156251	-529.5488891601561	1612.69921875	678.0531616210939	-542.6897583007811	1570.069946289062	585.8182373046876	-511.8656311035155	1631.26171875	569.0550537109376	-504.863311767578	1474.688842773438	332.0147399902345	-489.6740112304687	1414.663818359375	340.2180175781251	-494.5304870605468	1371.539794921875	267.052703857422	-474.6081848144531	1430.165649414062	243.1279602050782	-464.1082458496093	1246.176513671875	122.0378570556641	-398.8157958984375	1395.934692382812	20.01808929443369	-451.7724914550781	1430.844848632812	30.81604385375984	-345.8443603515625	
300	1.196	1839.255493164062	1710.307250976562	-355.936370849609	1777.9111328125	1657.486694335938	-281.5569458007809	1782.303100585938	1661.307983398438	-427.7755432128903	1642.549560546875	1489.2548828125	-361.1838073730465	1565.942749023438	1290.888427734375	-302.1914367675778	1570.867797851562	1298.602416992188	-439.6393127441403	1824.37158203125	1327.536987304688	-357.2476806640622	1713.169921875	1436.721557617188	-185.3524780273434	1660.021728515625	1275.93994140625	-102.2147979736325	1716.057983398438	1187.116577148438	-93.52565002441379	1594.717407226562	1196.370239257812	-97.69687652587864	1635.847900390625	1087.0703125	-86.33417510986304	1620.12841796875	1084.570068359375	-168.3007507324216	1719.24267578125	896.9420166015625	-75.59951782226543	1758.283203125	828.6925048828125	-111.0320510864256	1685.243896484375	810.5186767578125	-81.846481323242	1746.74462890625	740.3021240234375	-56.10711288452132	1729.923706054688	1445.9580078125	-525.1701660156247	1725.550903320312	1281.319946289063	-620.9575195312497	1795.806518554688	1207.191772460938	-615.5373535156248	1677.4990234375	1198.8056640625	-652.4330444335935	1746.490966796875	1100.279174804688	-656.5643310546873	1691.296508789062	1086.101806640625	-602.0328369140623	1884.987182617188	951.5178833007814	-623.1986694335935	1923.615356445312	902.3582153320314	-566.9789428710935	1890.092407226562	866.4805297851564	-626.8883056640623	1978.284423828125	833.2608642578126	-608.7799682617185	1722.38232421875	1038.960571289062	-196.6240997314451	1592.851684570312	1013.442016601563	-361.4526367187498	1707.796875	1040.291137695313	-542.5842285156248	1692.4169921875	889.0191040039062	-185.2443084716795	1818.065063476562	625.6651611328125	-209.735870361328	1865.716430664062	660.2850952148438	-203.7969512939452	1905.083251953125	567.8383178710938	-244.1127319335936	1842.6884765625	550.50537109375	-234.0741729736327	1906.177856445312	334.9590454101563	-229.0276641845702	1965.067993164062	332.6174011230469	-246.6129760742187	1985.9384765625	250.6944580078126	-264.9458923339843	1923.739379882812	237.080307006836	-250.8567657470703	1947.999755859375	31.2195129394532	-336.541748046875	2111.428466796875	42.29380416870123	-257.1981201171875	2156.326416015625	74.57198333740241	-344.9808044433594	1662.4013671875	934.9299316406251	-545.9936523437498	1665.227661132812	642.4764404296876	-529.5906372070311	1619.501708984375	677.3543701171876	-542.5050048828124	1576.886108398438	585.2634277343751	-512.0356445312499	1637.723266601562	568.2489624023439	-505.3515624999999	1479.586059570312	332.293426513672	-490.0956115722656	1419.568481445312	341.0837707519532	-494.9716186523437	1375.553466796875	268.5755310058595	-475.1085815429687	1433.75830078125	243.9242248535157	-464.9636840820312	1248.448364257812	125.3133087158204	-399.9000854492188	1396.117919921875	20.1341438293458	-451.882080078125	1431.052734375	31.04414749145516	-346.1570434570312	
301	1.2	1845.023681640625	1710.084350585938	-355.3037719726559	1783.558715820312	1657.11865234375	-280.9523925781247	1788.107055664062	1660.978149414062	-426.9908447265622	1648.215576171875	1488.71240234375	-360.3589477539059	1572.266357421875	1290.285766601562	-302.1214599609372	1577.022216796875	1298.241088867188	-439.0391845703122	1830.362426757812	1327.341430664062	-356.4468078613278	1719.095092773438	1436.16650390625	-184.7175598144528	1666.174926757812	1275.29052734375	-101.8355407714841	1722.239868164062	1186.435180664062	-93.05615997314426	1600.920043945312	1195.611572265625	-97.3953781127927	1642.176879882812	1086.340209960938	-86.04698944091773	1626.3291015625	1084.000244140625	-168.142623901367	1725.509521484375	896.2422485351562	-75.50584411621074	1764.531005859375	827.904541015625	-111.1034088134764	1691.3876953125	809.8422241210938	-81.83248901367169	1752.842529296875	739.4797973632812	-56.2564964294432	1735.74853515625	1445.65966796875	-524.6250610351559	1731.142456054688	1281.07470703125	-620.4819946289059	1801.288452148438	1206.86279296875	-615.165344238281	1682.667236328125	1198.406982421875	-651.2384033203123	1751.415405273438	1099.935302734375	-655.811828613281	1696.718505859375	1085.777221679688	-601.1349487304685	1889.856567382812	950.8333129882814	-623.1491088867185	1928.69482421875	901.6179199218751	-567.2416992187498	1894.720092773438	865.7250366210939	-626.9648437499998	1982.743286132812	832.3675537109376	-609.187805175781	1728.299560546875	1038.623657226562	-196.375534057617	1599.3203125	1013.134826660156	-361.5965881347654	1714.7255859375	1039.870239257813	-542.5314941406248	1699.211547851562	888.7847900390625	-184.9192962646482	1824.919067382812	626.2088012695312	-209.9104766845702	1872.773681640625	660.5760498046875	-204.6931915283202	1911.5439453125	567.8075561523438	-244.6500091552733	1848.998413085938	550.502197265625	-234.6693878173827	1912.141723632812	335.8102416992188	-229.9704284667968	1970.527465820312	332.4562377929688	-247.5585021972655	1990.829345703125	250.3282623291016	-265.5946655273437	1928.447265625	237.1759948730469	-251.6728363037109	1949.106689453125	32.24947738647469	-336.4816284179688	2113.30419921875	39.17456817626959	-258.2829895019531	2158.60986328125	69.7486648559571	-346.4057312011719	1669.128051757812	934.2779541015626	-545.7281494140623	1672.218627929688	641.7107543945314	-529.6455078124999	1626.524658203125	676.7441406250001	-542.5110473632811	1583.783569335938	584.3811035156251	-512.1409912109374	1645.07275390625	567.6294555664064	-505.256378173828	1484.455200195312	332.3890991210939	-490.6709289550781	1424.710083007812	342.0236816406251	-495.4983825683593	1379.411865234375	269.5032043457032	-475.5651550292968	1437.40576171875	244.1439971923829	-465.0193786621093	1250.87744140625	128.7494659423829	-400.8455810546874	1396.436279296875	20.30782890319834	-451.9757080078125	1431.209594726562	31.31040382385262	-346.3188781738281	
